<?xml version="1.0" encoding="UTF-8" standalone="no"?>
<!-- Generator: Adobe Illustrator 12.0.0, SVG Export Plug-In . SVG Version: 6.00 Build 51448)  -->
<svg enable-background="new 0 0 121 120" height="128" viewBox="0 0 121 120" width="128" xmlns="http://www.w3.org/2000/svg" xmlns:xlink="http://www.w3.org/1999/xlink">
  <defs>
    <linearGradient id="linearGradient5919">
      <stop offset="0" stop-color="#fff"/>
      <stop offset=".5" stop-color="#78c9ff" stop-opacity=".498039"/>
      <stop offset="1" stop-color="#fff" stop-opacity="0"/>
    </linearGradient>
    <filter id="filter5956">
      <feGaussianBlur stdDeviation=".55418773"/>
    </filter>
    <filter id="filter6074">
      <feGaussianBlur stdDeviation="1.9142018"/>
    </filter>
    <clipPath id="clipPath6080">
      <path d="m-135.842 93.331604a30.690229 30.690229 0 1 1 -61.38046 0 30.690229 30.690229 0 1 1 61.38046 0z" filter="url(#filter6074)"/>
    </clipPath>
    <radialGradient id="radialGradient6084" cx="-166.53223" cy="65.938202" gradientTransform="matrix(1 0 0 .6578174 0 22.562908)" gradientUnits="userSpaceOnUse" r="31.190229">
      <stop offset="0" stop-color="#fff"/>
      <stop offset="1" stop-color="#fff" stop-opacity="0"/>
    </radialGradient>
    <radialGradient id="radialGradient4150" cx="87.160835" cy="48.36097" gradientTransform="matrix(1.4591887 0 0 1 -40.023272 0)" gradientUnits="userSpaceOnUse" r="27.455904">
      <stop offset="0" stop-color="#020910"/>
      <stop offset="1" stop-color="#113e69" stop-opacity="0"/>
    </radialGradient>
    <radialGradient id="radialGradient4166" cx="-166.53223" cy="84.275475" gradientTransform="matrix(0 1 -1 0 -39.9985 140.0029)" gradientUnits="userSpaceOnUse" r="31.190229">
      <stop offset="0" stop-color="#0081ec"/>
      <stop offset="1" stop-color="#003871"/>
    </radialGradient>
    <radialGradient id="radialGradient4170" cx="-166.53223" cy="116.62209" gradientTransform="matrix(0 1 -1 0 -39.9985 140.0029)" gradientUnits="userSpaceOnUse" r="31.190229">
      <stop offset="0" stop-color="#0081ec"/>
      <stop offset="1" stop-color="#004c98"/>
    </radialGradient>
    <linearGradient id="linearGradient2951" gradientUnits="userSpaceOnUse" x1="50.10156829441" x2="50.10156829441" xlink:href="#linearGradient5919" y1="-5.7264598773" y2="69.8985452267"/>
    <linearGradient id="linearGradient2954" gradientUnits="userSpaceOnUse" x1="95.47655025362" x2="16.38493485278" xlink:href="#linearGradient5919" y1="85.02353121614" y2="33.6664163117"/>
    <linearGradient id="linearGradient2957" gradientUnits="userSpaceOnUse" x1="52.71800226043" x2="52.71800226043" xlink:href="#linearGradient5919" y1="-114.49952547321" y2="72.16630474184"/>
    <linearGradient id="linearGradient2961" gradientUnits="userSpaceOnUse" x1="77.23088183618" x2="74.73355284305" xlink:href="#linearGradient5919" y1="-18.55567465966" y2="81.03271059867"/>
    <radialGradient id="radialGradient3670" cx="57.703697" cy="59.733471" gradientTransform="matrix(1 0 0 1.3077657 -.039636 -18.383916)" gradientUnits="userSpaceOnUse" r="31.003296" xlink:href="#XMLID_284_"/>
    <filter id="filter3710">
      <feGaussianBlur stdDeviation=".38692876"/>
    </filter>
    <filter id="filter3714">
      <feGaussianBlur stdDeviation=".32542969"/>
    </filter>
    <clipPath id="clipPath3718">
      <path d="m-229.89519 139.3281c-4.65425 0-8.43749 3.78327-8.43749 8.4375 0 4.65538 3.78439 8.4375 8.43749 8.4375 4.66002 0 8.40626-3.78212 8.40626-8.4375 0-4.65423-3.74624-8.4375-8.40626-8.4375zm-32.9375 19.1875v5.96875h23.09375v29.96875 30.59375h6.71875v-28.28125h6.09375v28.34376h6.68751v-60.62501h22.99999v-5.96875z"/>
    </clipPath>
    <radialGradient cx="57.703697" cy="59.733471" gradientTransform="matrix(1.0578512 0 0 1.3834216 -291.07774 99.582153)" gradientUnits="userSpaceOnUse" r="31.003296" xlink:href="#XMLID_284_"/>
    <clipPath id="clipPath3724">
      <path d="m-133.10024 137.45622c-4.65425 0-8.4375 3.78327-8.4375 8.4375 0 4.65538 3.7844 8.4375 8.4375 8.4375 4.66001 0 8.40626-3.78212 8.40626-8.4375 0-4.65423-3.74625-8.4375-8.40626-8.4375zm-32.9375 19.1875v5.96875h23.09375v29.96875 30.59375h6.71875v-28.28125h6.09375v28.34376h6.6875v-60.62501h23v-5.96875z"/>
    </clipPath>
    <radialGradient cx="57.703697" cy="59.733471" gradientTransform="matrix(1.0578512 0 0 1.3834216 -194.28279 97.710275)" gradientUnits="userSpaceOnUse" r="31.003296" xlink:href="#XMLID_284_"/>
    <filter id="filter3754">
      <feGaussianBlur stdDeviation="2.1987391"/>
    </filter>
    <radialGradient id="radialGradient3764" cx="-230.0726" cy="149.23904" gradientTransform="matrix(1.5872973 -.00815643 .01070787 2.0838251 133.52299 -163.62558)" gradientUnits="userSpaceOnUse" r="32.760095">
      <stop offset="0"/>
      <stop offset="1" stop-opacity=".01"/>
    </radialGradient>
    <linearGradient id="XMLID_284_" gradientTransform="matrix(.7071 -.7071 .7071 .7071 -138.39 48.1647)" gradientUnits="userSpaceOnUse" x1="111.1143" x2="112.4229" y1="152.97659" y2="152.97659">
      <stop offset="0" stop-color="#ddd"/>
      <stop offset=".5" stop-color="#fff"/>
      <stop offset=".94080001" stop-color="#f2f2f2"/>
    </linearGradient>
  </defs>
  <g transform="translate(2.835938 -2.336035)">
    <path d="m114.55424 39.742821a27.393404 27.393404 0 1 1 -54.786809 0 27.393404 27.393404 0 1 1 54.786809 0z" fill="url(#radialGradient4150)" filter="url(#filter3754)" transform="matrix(1.6963214 0 0 1.0438901 -90.188728 47.081322)"/>
    <path d="m-135.842 93.331604a30.690229 30.690229 0 1 1 -61.38046 0 30.690229 30.690229 0 1 1 61.38046 0z" fill="url(#radialGradient4166)" transform="matrix(-1.8481044 0 0 1.8481044 -250.07029 -113.93177)"/>
    <path clip-path="url(#clipPath6080)" d="m-135.842 93.331604a30.690229 30.690229 0 1 1 -61.38046 0 30.690229 30.690229 0 1 1 61.38046 0z" fill="url(#radialGradient6084)" filter="url(#filter6074)" transform="matrix(-1.8481044 0 0 1.8481044 -250.07029 -113.93177)"/>
    <path d="m-135.842 93.331604a30.690229 30.690229 0 1 1 -61.38046 0 30.690229 30.690229 0 1 1 61.38046 0z" fill="url(#radialGradient4170)" transform="matrix(-1.714704 0 0 1.714704 -227.85481 -101.72212)"/>
    <path d="m57.693445 5.7081177c-29.048821 0-52.6025239 23.5537163-52.6025239 52.6025313 0 2.704326.17156 5.38038.56562 7.975222.00276.018226-.00279.038334 0 .056562 11.0603939 1.769075 22.8387759 2.65841 35.0683359 2.65841 26.127349 0 50.244333-4.365945 69.571093-11.708309-.54339-28.579373-23.893983-51.5844125-52.602525-51.5844163z" fill="url(#linearGradient2961)" opacity=".892193"/>
    <path d="m-134.09375 98.625c-.00282.166656-.03125.332675-.03125.5 0 16.04925 13.0445 29.0625 29.09375 29.0625 16.049249 0 29.062503-13.01325 29.0625-29.0625 0-.167107.002813-.33356 0-.5-.267346 15.81875-13.180358 28.5625-29.0625 28.5625-15.88193 0-28.79481-12.74404-29.0625-28.5625z" fill="#007fea" filter="url(#filter5956)" transform="matrix(-1.8099795 0 0 1.8099795 -132.43953 -120.55013)"/>
    <path d="m57.661853 5.745502c-29.048802 0-52.6025219 23.55372-52.6025219 52.602541 0 .26641-.00339.526041 0 .791858.54289-28.57886 23.8939799-51.5844243 52.6025219-51.5844051 28.098024 0 51.072437 22.0426091 52.545977 49.7744301.01635-.006204.04021.006204.05656 0-.54339-28.579377-23.893995-51.5844049-52.602537-51.584424z" fill="url(#linearGradient2957)"/>
    <path d="m77.3735 9.5145923c17.451568 8.3188647 31.80136 26.7912627 32.19157 47.3148377-19.326755 7.342381-46.660176 11.388616-72.787525 11.388635-10.174841.215665-20.026134-.136877-31.1810439-1.915364.00273.018226-.0028.038334 0 .056562 11.0603699 1.769056 22.8387899 2.658391 35.0683499 2.658391 26.12735 0 50.244333-4.365909 69.571089-11.70829-.41135-21.634177-13.881839-40.110069-32.86244-47.7947717z" fill="url(#linearGradient2954)"/>
    <path d="m57.661853 5.745502c-29.048802 0-52.6025219 23.55372-52.6025219 52.602541 0 .26641-.00339.526041 0 .791858.54289-28.57886 23.8939799-52.3084161 52.6025219-52.308397 28.098024 0 51.072437 22.766601 52.545977 50.498422.01635-.006204.04021.006204.05656 0-.54339-28.579377-23.893995-51.5844049-52.602537-51.584424z" fill="url(#linearGradient2951)"/>
    <path d="m57.796996 19.188423c-4.39972 0-7.976074 3.576372-7.976074 7.976074 0 4.400793 3.577441 7.976072 7.976074 7.976074 4.405167 0 7.946534-3.575281 7.946534-7.976074 0-4.399702-3.541367-7.976073-7.946534-7.976074zm-31.136229 18.138183v5.642334h21.83081v28.329837 28.920653h6.351318v-26.734616h5.760498v26.793706h6.321777v-57.30958h21.742188v-5.642334z" fill="url(#radialGradient3670)"/>
    <path clip-path="url(#clipPath3724)" d="m-141.46875 146c-.0384.3261-.0625.66371-.0625 1 0 4.65538 3.7844 8.4375 8.4375 8.4375 4.66001 0 8.40625-3.78212 8.40625-8.4375 0-.33629-.0557-.6739-.09375-1-.48853 4.18784-3.9892 7.4375-8.3125 7.4375-4.31689 0-7.88176-3.24966-8.375-7.4375zm-24.5625 15.71875v2h23.09375v-2zm42.59375 0v2h23v-2zm-12.78125 32.28125v2h6.09375v-2zm-6.71875 28.28125v2h6.71875v-2zm12.8125.0625v2h6.6875v-2z" fill="#fff" filter="url(#filter3710)" transform="matrix(.9453125 0 0 .9453125 183.61525 -110.75066)"/>
    <path clip-path="url(#clipPath3718)" d="m-229.96875 137.9625c-4.65426 0-8.4375 3.78326-8.4375 8.4375 0 .33637.02409.67384.0625 1 .4931-4.18708 4.05703-7.4375 8.375-7.4375 4.32331 0 7.82397 3.25043 8.3125 7.4375.03805-.32616.09375-.66363.09375-1 0-4.65424-3.74624-8.4375-8.40625-8.4375zm-32.9375 19.1875v2h65.59375v-2z" fill="url(#radialGradient3764)" filter="url(#filter3714)" opacity=".619565" transform="matrix(.9453125 0 0 .9453125 275.15456 -112.52017)"/>
  </g>
</svg>
