<?xml version="1.0" encoding="UTF-8" standalone="no"?>
<!-- Generator: Adobe Illustrator 12.0.0, SVG Export Plug-In . SVG Version: 6.00 Build 51448)  -->
<svg enable-background="new 0 0 128 128" height="128" viewBox="0 0 128 128" width="128" xmlns="http://www.w3.org/2000/svg" xmlns:xlink="http://www.w3.org/1999/xlink">
  <defs>
    <filter id="filter5943">
      <feGaussianBlur stdDeviation="1.04"/>
    </filter>
    <linearGradient id="linearGradient6930" gradientUnits="userSpaceOnUse" x1="122.000035" x2="122.000035" y1="61.999997" y2="9.932843">
      <stop offset="0" stop-color="#004d00" stop-opacity="0"/>
      <stop offset=".5" stop-color="#004d00"/>
      <stop offset="1" stop-color="#004d00" stop-opacity="0"/>
    </linearGradient>
    <linearGradient id="linearGradient8927" gradientTransform="matrix(0 .7388168 -.7388168 0 -1.522665 63.255682)" gradientUnits="userSpaceOnUse" x1="-80.00296" x2="-45.096584" y1="-131.93112" y2="-131.93112">
      <stop offset="0" stop-color="#fff"/>
      <stop offset="1" stop-color="#fff" stop-opacity="0"/>
    </linearGradient>
    <filter id="filter7317">
      <feGaussianBlur stdDeviation="2.8805897"/>
    </filter>
    <clipPath id="clipPath5163">
      <circle cx="343.99899" cy="92" r="36"/>
    </clipPath>
    <linearGradient id="linearGradient4272" gradientUnits="userSpaceOnUse" x1="328.12448" x2="336.98077" y1="120.81158" y2="87.759453">
      <stop offset="0" stop-color="#0f0"/>
      <stop offset="1" stop-color="#006500"/>
    </linearGradient>
    <radialGradient id="radialGradient8920" cx="343.99899" cy="92" gradientTransform="matrix(0 1 -1 0 -39.9985 140.0029)" gradientUnits="userSpaceOnUse" r="36">
      <stop offset="0" stop-color="#e5ff00"/>
      <stop offset="1" stop-color="#bff500" stop-opacity="0"/>
    </radialGradient>
    <linearGradient id="linearGradient8916" gradientTransform="matrix(0 1 -1 0 -39.9985 140.0029)" gradientUnits="userSpaceOnUse" x1="-86.120354" x2="-56.357521" y1="-381.09921" y2="-373.1243">
      <stop offset="0" stop-color="#008c00"/>
      <stop offset="1" stop-color="#00bf00"/>
    </linearGradient>
    <filter id="filter4292">
      <feGaussianBlur stdDeviation="2.1604423"/>
    </filter>
    <linearGradient id="lg1">
      <stop offset="0" stop-color="#fff"/>
      <stop offset="1" stop-color="#555753"/>
    </linearGradient>
    <linearGradient id="linearGradient2291" gradientUnits="userSpaceOnUse" x1="94.3438" x2="86.5356" xlink:href="#lg1" y1="102.3447" y2="94.5366"/>
    <linearGradient id="linearGradient2293" gradientUnits="userSpaceOnUse" x1="95" x2="86.5865" xlink:href="#lg1" y1="103" y2="94.5865"/>
    <linearGradient id="linearGradient2295" gradientUnits="userSpaceOnUse" x1="95" x2="87.293" y1="103" y2="95.293">
      <stop offset="0" stop-color="#fff"/>
      <stop offset="1" stop-color="#393b38"/>
    </linearGradient>
    <linearGradient id="linearGradient2297" gradientUnits="userSpaceOnUse" x1="96" x2="88.0002" y1="104" y2="96.0002">
      <stop offset="0" stop-color="#888a85"/>
      <stop offset=".0072" stop-color="#8c8e89"/>
      <stop offset=".0673" stop-color="#abaca9"/>
      <stop offset=".1347" stop-color="#c5c6c4"/>
      <stop offset=".2115" stop-color="#dbdbda"/>
      <stop offset=".3012" stop-color="#ebebeb"/>
      <stop offset=".4122" stop-color="#f7f7f6"/>
      <stop offset=".5679" stop-color="#fdfdfd"/>
      <stop offset="1" stop-color="#fff"/>
    </linearGradient>
    <radialGradient id="radialGradient2272" cx="102" cy="112.3047" gradientTransform="matrix(.9787234 0 0 .9818182 1.361705 1.163636)" gradientUnits="userSpaceOnUse" r="139.55859">
      <stop offset="0" stop-color="#535557"/>
      <stop offset=".11366145" stop-color="#898a8c"/>
      <stop offset=".20296688" stop-color="#ececec"/>
      <stop offset=".2363" stop-color="#fafafa"/>
      <stop offset=".2722" stop-color="#fff"/>
      <stop offset=".5313" stop-color="#fafafa"/>
      <stop offset=".8449" stop-color="#ebecec"/>
      <stop offset="1" stop-color="#e1e2e3"/>
    </radialGradient>
    <radialGradient id="radialGradient2275" cx="102.000002" cy="112.3047" gradientUnits="userSpaceOnUse" r="139.5585">
      <stop offset="0" stop-color="#00537d"/>
      <stop offset=".0151" stop-color="#186389"/>
      <stop offset=".0558" stop-color="#558ca8"/>
      <stop offset=".0964" stop-color="#89afc3"/>
      <stop offset=".1357" stop-color="#b3ccd8"/>
      <stop offset=".1737" stop-color="#d4e2e9"/>
      <stop offset=".2099" stop-color="#ecf2f5"/>
      <stop offset=".2435" stop-color="#fafcfd"/>
      <stop offset=".2722" stop-color="#fff"/>
    </radialGradient>
    <filter id="filter3241">
      <feGaussianBlur stdDeviation="1.0394514"/>
    </filter>
  </defs>
  <path d="m23 9 .040816 112h61.131184c.53 0 1.039-.211 1.414-.586l32.828-32.828c.375-.375.586-.884.586-1.414v-77.172z" filter="url(#filter3241)" opacity=".5" transform="matrix(1.0416667 0 0 1.0357143 -9.958333 -3.321534)"/>
  <path d="m16.000002 8v112h61.172c.53 0 1.039-.211 1.414-.586l32.827998-32.828c.375-.375.586-.884.586-1.414v-77.172z" fill="url(#radialGradient2275)"/>
  <path d="m18.978725 10c-.539276 0-.978723.440836-.978723.981818v106.036362c0 .54197.439447.98182.978723.98182h57.913022c.257404 0 .509915-.10407.691957-.28767l32.129526-32.23113c.18303-.1836.28677-.435927.28677-.694145v-73.805237c0-.540982-.43847-.981818-.97872-.981818z" fill="url(#radialGradient2272)"/>
  <g transform="translate(.000002)">
    <path d="m111.414 86.586c.25-.25-18.379 6.414-23.414 6.414-1.654 0-3 1.346-3 3 0 5.035-6.664 23.664-6.414 23.414z" fill="url(#linearGradient2291)" opacity=".1"/>
    <path d="m111.414 86.586c.375-.375-13.97 7.414-23.414 7.414-1.103 0-2 .897-2 2 0 9.444-7.789 23.789-7.414 23.414z" fill="url(#linearGradient2293)" opacity=".1"/>
    <path d="m111.414 86.586c.239-.239-13.607 8.414-23.414 8.414-.553 0-1 .447-1 1 0 9.807-8.653 23.653-8.414 23.414z" fill="url(#linearGradient2295)" opacity=".1"/>
    <path d="m78.586 119.414s11.914-9.914 17.414-15.414 15.414-17.414 15.414-17.414-13.164 9.414-23.414 9.414c0 10.25-9.414 23.414-9.414 23.414z" fill="url(#linearGradient2297)"/>
  </g>
  <g transform="translate(.00001 .000017)">
    <circle cx="343.99899" cy="92" filter="url(#filter4292)" opacity=".5" r="36" transform="matrix(-.858425 .2300143 -.2300143 -.858425 412.45864 35.85043)"/>
    <circle cx="343.99899" cy="92" fill="url(#linearGradient8916)" r="36" transform="matrix(-.858425 .2300143 -.2300143 -.858425 412.45864 31.85043)"/>
    <circle cx="343.99899" cy="92" fill="url(#radialGradient8920)" r="36" transform="matrix(-.6438188 .1725107 -.1725107 -.6438188 333.34401 31.887831)"/>
    <circle cx="343.99899" cy="92" r="36" style="opacity:.8;fill:none;stroke-width:6.751382;clip-path:url(#clipPath5163);stroke:url(#linearGradient4272);filter:url(#filter7317)" transform="matrix(-.858425 -.2300143 -.2300143 .858425 412.45864 32.149572)"/>
    <path d="m96.000027 4.1481901c-11.345716 0-20.826095 8.0116059-23.111114 18.6782149 4.554661 4.245895 13.196893 7.111109 23.111114 7.111109 9.914233 0 18.556453-2.865214 23.111113-7.111109-2.28501-10.666609-11.7654-18.6782149-23.111113-18.6782149z" fill="url(#linearGradient8927)" opacity=".8"/>
    <g transform="translate(-26.000031 -3.999996)">
      <path d="m118.00003 15.999997v16h-16v8h16v16h8v-16h16v-8h-16v-16z" style="fill:none;stroke-width:4;stroke-linecap:round;stroke-linejoin:round;stroke:url(#linearGradient6930);filter:url(#filter5943)"/>
      <path d="m118.00003 15.999997v16h-16v8h16v16h8v-16h16v-8h-16v-16z" fill="#fff" fill-rule="evenodd"/>
    </g>
  </g>
</svg>
