<?xml version="1.0" encoding="UTF-8"?>
<svg width="128" height="128" version="1.1" viewBox="0 0 128 128" xmlns="http://www.w3.org/2000/svg" xmlns:xlink="http://www.w3.org/1999/xlink">
 <defs>
  <radialGradient id="x" cx="118.17" cy="9.1196" r="1.2844" gradientTransform="matrix(1.2088 .95832 -1.4021 1.7686 -11.996 -120.41)" gradientUnits="userSpaceOnUse" xlink:href="#a"/>
  <linearGradient id="a">
   <stop stop-color="#fff" offset="0"/>
   <stop stop-color="#fff" stop-opacity="0" offset="1"/>
  </linearGradient>
  <filter id="d">
   <feGaussianBlur stdDeviation="0.10453397"/>
  </filter>
  <radialGradient id="z" cx="118.17" cy="9.1196" r="1.2844" gradientTransform="matrix(1.2088 .95832 -1.4021 1.7686 -11.096 -120.71)" gradientUnits="userSpaceOnUse" xlink:href="#a"/>
  <linearGradient id="b">
   <stop offset="0"/>
   <stop stop-opacity="0" offset="1"/>
  </linearGradient>
  <clipPath id="ak">
   <rect x="12" y="12" width="8" height="12" rx="1.0793" ry="1.0793" opacity=".18359"/>
  </clipPath>
  <filter id="c" x="-.14667" y="-.10154" width="1.2933" height="1.2031">
   <feGaussianBlur stdDeviation="0.55"/>
  </filter>
  <radialGradient id="v" cx="16" cy="18" r="4" gradientTransform="matrix(1,0,0,1.5,0,-9)" gradientUnits="userSpaceOnUse">
   <stop stop-color="#7a7a7a" offset="0"/>
   <stop stop-opacity=".49091" offset="1"/>
  </radialGradient>
  <linearGradient id="ax" x1="16" x2="16" y1="1.5953" y2="18.755" gradientUnits="userSpaceOnUse" xlink:href="#b"/>
  <clipPath id="aj">
   <rect x="12" y="12" width="8" height="12" rx="1.0793" ry="1.0793" opacity=".18359"/>
  </clipPath>
  <radialGradient id="w" cx="14" cy="19.7" r="2.15" fy="18.836" gradientTransform="matrix(1.1063 0 0 1.1063 .54709 -2.2994)" gradientUnits="userSpaceOnUse">
   <stop stop-color="#868385" offset="0"/>
   <stop stop-color="#4a4949" offset="1"/>
  </radialGradient>
  <linearGradient id="ay" x1="11.918" x2="11.918" y1="17.561" y2="20.038" gradientTransform="matrix(1.1063 0 0 1.1063 .54709 -2.2994)" gradientUnits="userSpaceOnUse">
   <stop stop-color="#fff" offset="0"/>
   <stop offset="1"/>
  </linearGradient>
  <filter id="ao">
   <feGaussianBlur stdDeviation="0.04177847"/>
  </filter>
  <linearGradient id="ba" x1="64" x2="56" y1="120.07" y2="96.316" gradientTransform="matrix(1,0,0,1.0104,0,-1.31)" gradientUnits="userSpaceOnUse">
   <stop stop-color="#8a8a8a" offset="0"/>
   <stop stop-color="#c6c6c6" offset="1"/>
  </linearGradient>
  <linearGradient id="az" x1="-37.195" x2="-12.625" y1="42.336" y2="106.8" gradientTransform="translate(126.8)" gradientUnits="userSpaceOnUse" xlink:href="#a"/>
  <filter id="aq">
   <feGaussianBlur stdDeviation="0.0231875"/>
  </filter>
  <radialGradient id="ag" cx="104.09" cy="9" r=".46875" gradientTransform="matrix(1 0 0 .8 -80.464 1.9105)" gradientUnits="userSpaceOnUse" xlink:href="#a"/>
  <filter id="e">
   <feGaussianBlur stdDeviation="0.025961538"/>
  </filter>
  <radialGradient id="ac" cx="104.09" cy="9" r=".46875" gradientTransform="matrix(1 0 0 .8 -.5 1.91)" gradientUnits="userSpaceOnUse" xlink:href="#a"/>
  <linearGradient id="h" x1="68" x2="36" y1="120" y2="84" gradientUnits="userSpaceOnUse" xlink:href="#b"/>
  <filter id="ar" x="-.12385" y="-.092885" width="1.2477" height="1.1858">
   <feGaussianBlur stdDeviation="1.2384615"/>
  </filter>
  <radialGradient id="ai" cx="84" cy="91.983" r="32" gradientTransform="matrix(1 0 0 .62103 0 37.877)" gradientUnits="userSpaceOnUse" xlink:href="#a"/>
  <linearGradient id="u" x1="47.609" x2="47.609" y1="104.35" y2="176.35" gradientUnits="userSpaceOnUse" xlink:href="#b"/>
  <clipPath id="am">
   <path d="m18.19 132.42c-1.4192 0-2.5625 1.1433-2.5625 2.5625v37.183h72v-37.183c0-1.4192-1.1433-2.5625-2.5625-2.5625z" fill-opacity=".12832"/>
  </clipPath>
  <filter id="av" x="-.069006" y="-.12026" width="1.138" height="1.2405">
   <feGaussianBlur stdDeviation="1.9228365"/>
  </filter>
  <linearGradient id="k" x1="107.06" x2="107.06" y1="-26.263" y2="134.55" gradientTransform="translate(9.4 .6)" gradientUnits="userSpaceOnUse" xlink:href="#a"/>
  <linearGradient id="i" x1="69.913" x2="70.02" y1="-96.5" y2="-67.843" gradientTransform="translate(0 131.41)" gradientUnits="userSpaceOnUse" xlink:href="#a"/>
  <filter id="f">
   <feGaussianBlur stdDeviation="0.11145486"/>
  </filter>
  <clipPath id="an">
   <path d="m11.375-167.68c-2.9534 0-3.375 0.36407-3.375 3.3438v0.78125c0-2.9797 0.42155-3.3125 3.375-3.3125h105.25c2.9534 0 3.375 0.33282 3.375 3.3125v-0.78125c0-2.9797-0.42155-3.3438-3.375-3.3438z" fill="url(#linearGradient3219)"/>
  </clipPath>
  <filter id="as" x="-.007141" y="-.22689" width="1.0143" height="1.4538">
   <feGaussianBlur stdDeviation="0.33324519"/>
  </filter>
  <radialGradient id="af" cx="64.802" cy="63.781" r="34.041" gradientTransform="matrix(1.1398 0 0 .010707 -9.08 63.1)" gradientUnits="userSpaceOnUse">
   <stop stop-color="#fff" offset="0"/>
   <stop stop-color="#fff" stop-opacity=".69818" offset=".5"/>
   <stop stop-color="#fff" stop-opacity="0" offset="1"/>
  </radialGradient>
  <filter id="aw" x="-.0060582" y="-.6241" width="1.0121" height="2.2482">
   <feGaussianBlur stdDeviation="0.18955201"/>
  </filter>
  <radialGradient id="y" cx="100.31" cy="42.449" r="38" gradientTransform="matrix(4.5705,7.2649e-7,-2.9846e-7,1.8569,-416.62,-84.72)" gradientUnits="userSpaceOnUse">
   <stop stop-color="#d0ced9" offset="0"/>
   <stop stop-color="#ecf1f9" offset=".25"/>
   <stop stop-color="#fff" offset=".5"/>
   <stop stop-color="#c6d5e3" offset="1"/>
  </radialGradient>
  <clipPath id="al">
   <rect x="24.681" y="-68.245" width="78.124" height="55.396" rx="1.1339" ry="1.1339" fill="none" opacity=".26562" stroke="#000" stroke-dashoffset="4.15" stroke-linecap="round" stroke-linejoin="round" stroke-width=".4"/>
  </clipPath>
  <filter id="ap">
   <feGaussianBlur stdDeviation="0.66759571"/>
  </filter>
  <linearGradient id="g" x1="-97.743" x2="-97.743" y1="1938" y2="1895.4" gradientTransform="matrix(2.56 0 0 2.5827 317.2 -4887.4)" gradientUnits="userSpaceOnUse">
   <stop stop-color="#2e2a2b" offset="0"/>
   <stop stop-color="#4c494a" offset=".33498"/>
   <stop stop-color="#5b595a" offset=".66749"/>
   <stop stop-color="#6b696a" offset="1"/>
  </linearGradient>
  <filter id="at" x="-.070976" y="-.7965" width="1.142" height="2.593">
   <feGaussianBlur stdDeviation="2.9868914"/>
  </filter>
  <radialGradient id="ah" cx="28.481" cy="164.13" r="52.145" gradientTransform="matrix(5.4916 -.11504 .0026103 .1246 -128.37 104.83)" gradientUnits="userSpaceOnUse" xlink:href="#b"/>
  <filter id="au" x="-.023358" y="-.18741" width="1.0467" height="1.3748">
   <feGaussianBlur stdDeviation="1.0149838"/>
  </filter>
 </defs>
 <path d="m16 121h14v-1h58.2v1h27.8v-4l-103.29-6.9977z" fill="url(#ah)" fill-rule="evenodd" filter="url(#au)"/>
 <path d="m16 121h14v-1h60v1h29v-4l-106.29-0.99772z" fill-rule="evenodd" filter="url(#at)" stroke="#000" stroke-width="1px"/>
 <path d="m11.3 8c-1.8088 0-3.3611 1.6254-3.3601 3.3268v98.932l10.64 10.654h97.999c2.9535 0 3.3598-0.34717 3.3598-3.3266v-106.26c0-1.813-1.558-3.3268-3.3598-3.3268z" fill="url(#g)"/>
 <path d="m11.4 8.6c-2.0564 0.10719-3.375 0.70528-3.375 3.3125v0.59375c0-2.9797 1.4216-3.3125 4.375-3.3125h103.25c2.9535 0 4.375 0.33282 4.375 3.3125v-0.59375c0-2.9797-1.4215-3.3125-4.375-3.3125h-103.25c-0.3691 0-0.7062-0.0153-1 0z" fill="#fff" fill-opacity=".46903" filter="url(#f)"/>
 <path d="m104.3 8.63c-0.1011 0-0.1884 0.0369-0.2812 0.0625-0.1043 0.0288-0.1916 0.0687-0.2813 0.125-0.085 0.0537-0.1503 0.1133-0.2187 0.1875-0.029 0.031-0.069 0.0597-0.094 0.0937-0.034 0.0406-0.065 0.0806-0.094 0.125-0.093 0.16901-0.1563 0.35712-0.1563 0.5625v51.375h0.4063v-51.375c0-0.21142 0.089-0.39008 0.1875-0.5625h11.906c2.9535 0 4.375 0.33282 4.375 3.3125v-0.59375c0-2.6072-1.3157-3.1768-3.375-3.2812h-12.125c0.054-8e-3 0.1004-0.0312 0.1563-0.0312zm-93.219 0.0312c-1.6252 0.15371-2.962 0.77436-3 2.875 0.121-2.0599 1.7595-2.3125 4.3437-2.3125h12c0.1066 0.1773 0.1563 0.37327 0.1563 0.59375v51.375h0.4062v-51.375c0-0.22048-0.05-0.41645-0.1562-0.59375-0.045-0.0753-0.096-0.15599-0.1563-0.21875-0.094-0.10558-0.2187-0.19086-0.3437-0.25-0.1164-0.055-0.2345-0.0937-0.375-0.0937h-0.5zm-3 2.875c0 0.13474-0.031 0.25892-0.031 0.40625v0.59375c0-0.37246 0.014-0.70573 0.031-1z" fill="url(#i)" filter="url(#f)" opacity=".26953"/>
 <path d="m115.4 8.6c2.9534 0 3.775 0.33282 3.775 3.3125v103.28c0 2.9794-2.8216 5.3125-5.775 5.3125h0.7187c2.9535 0 5.3438-2.3331 5.3438-5.3125v-103.28c0-2.9797-0.3903-3.3125-3.3438-3.3125z" fill="url(#k)"/>
 <path transform="translate(16.4,-52.35)" d="m16.781 130.44c-1.483 0-2.6562 1.2046-2.6562 2.6875v42.031c0 1.483 1.1733 2.6562 2.6562 2.6562h0.15625c-0.40777-0.44637-0.6875-1.0318-0.6875-1.6875v-39.969c0-1.3913 1.112-2.5312 2.5-2.5312h65.594c1.388 0 2.5 1.1399 2.5 2.5312v39.969c2e-6 0.65574-0.24848 1.2411-0.65625 1.6875h0.125c1.483 0 2.6875-1.1733 2.6875-2.6562v-42.031c0-1.483-1.2045-2.6875-2.6875-2.6875z" clip-path="url(#am)" fill="url(#u)" filter="url(#av)"/>
 <path d="m34.5 80.009c-1.4192 0-2.5625 1.1433-2.5625 2.5625l0.025 37.146h72l-0.025-37.146c0-1.4192-1.1433-2.5625-2.5625-2.5625z" fill-opacity=".12832"/>
 <path d="m34.6 80.072c-1.4193 0-2.5625 1.1433-2.5625 2.5625v37.183l71.981-0.11658v-37.183c0-1.4192-1.1433-2.5625-2.5625-2.5625z" fill="url(#ai)" opacity=".074219"/>
 <path transform="matrix(1,0,0,1.0104,0,-1.31)" d="m52.938 84c-0.51955 0-0.9375 0.41795-0.9375 0.9375v23.062h-11.062c-0.51955 0-0.9375 0.41795-0.9375 0.9375v6.125c0 0.51955 0.41795 0.9375 0.9375 0.9375h22.125c0.51955 0 0.9375-0.41795 0.9375-0.9375v-30.125c0-0.51955-0.41795-0.9375-0.9375-0.9375z" fill="url(#h)" filter="url(#ar)"/>
 <path transform="matrix(.98758 0 0 1 .7 .2)" d="m112.08 97.375v6.7188h-2.25l4.3438 7.5312 4.3438-7.5312h-2.25v-6.7188h-2.0938z" fill="url(#az)" fill-rule="evenodd" filter="url(#aq)" opacity=".45312" stroke="#fff" stroke-width=".1"/>
 <path d="m34.5 80.323c-1.1772 0-2.125 0.95756-2.125 2.147l0.1768 38.067h55.406v-38.21c0-1.1894-0.8227-2.0038-2-2.0038zm6.3955 8.0323h14.125c0.5196 0 0.9375 0.42228 0.9375 0.94721v21.598c0 0.52493-0.4179 0.94721-0.9375 0.94721h-14.125c-0.5195 0-0.9375-0.42228-0.9375-0.94721v-21.598c0-0.52493 0.418-0.94721 0.9375-0.94721z" fill="url(#ba)"/>
 <path d="m34.7 80.383c-1.1772 0-2.125 0.95756-2.125 2.147v0.18944c0-1.1894 0.9478-2.147 2.125-2.147h51.156c1.0301 0 1.8962 0.75643 2.0937 1.7365-0.1089-1.0847-0.9904-1.926-2.0937-1.926zm5.2813 30.721v0.18946c0 0.52492 0.4179 0.94719 0.9375 0.94719h14.125c0.5195 0 0.9375-0.42227 0.9375-0.94719v-0.18946c0 0.52493-0.418 0.9472-0.9375 0.9472h-14.125c-0.5196 0-0.9375-0.42227-0.9375-0.9472z" fill="#fff"/>
 <path d="m34.7 80.281c-1.1772 0-2.125 1.3635-2.125 2.5529v0.18944c0-1.1894 0.9478-1.547 2.125-1.547h51.156c1.0301 0 1.6962 0.15643 1.8937 1.1365-0.1089-1.0847-0.7904-2.2304-1.8937-2.2304zm5.2813 31.127v0.18944c0 0.52493 0.4179 0.94721 0.9375 0.94721h14.125c0.5195 0 0.9375-0.42228 0.9375-0.94721v-0.18944c0 0.52493-0.418 0.9472-0.9375 0.9472h-14.125c-0.5196 0-0.9375-0.42227-0.9375-0.9472z" fill="#fff"/>
 <path transform="translate(.3 76.485)" d="m24.694-69.481v56.656h78.1v-56.656z" clip-path="url(#al)" fill="none" filter="url(#ap)" stroke="#000" stroke-dashoffset="1.0878" stroke-linecap="round" stroke-linejoin="round" stroke-width=".7"/>
 <rect x="26" y="8" width="76" height="54" rx="1.2345" ry="1.2345" fill="url(#y)"/>
 <rect x="26.1" y="8" width="3.8491" height="53.922" rx=".92457" ry=".92457" fill="#cfdce7" opacity=".61328"/>
 <rect x="98" y="8.5" width="3.7945" height="53.467" rx=".89724" ry=".92457" fill="#cfdce7" opacity=".54688"/>
 <rect x="26" y="63.418" width="75.092" height=".72893" fill="url(#af)" filter="url(#aw)"/>
 <path transform="translate(0 176.85)" d="m12.375-168.28c-2.9534 0-4.375 0.36407-4.375 3.3438v0.78125c0-2.9797 1.4216-3.3125 4.375-3.3125h103.25c2.9534 0 4.375 0.33282 4.375 3.3125v-0.78125c0-2.9797-1.4216-3.3438-4.375-3.3438z" clip-path="url(#an)" fill-opacity=".35841" filter="url(#as)"/>
 <g fill="#b2c6d9" fill-rule="evenodd">
  <path d="m32 16.124v3.9536h64v-3.9536z" opacity=".56522"/>
  <path d="m32 32.23v3.8904h64v-3.8904z" opacity=".56522"/>
  <path d="m32 48.204v4h64v-4z" opacity=".56522"/>
 </g>
 <path d="m101.4 8v53.806c0.183-0.10161 0.2943-0.251 0.4062-0.4v-53.406z" fill="#fff"/>
 <path d="m26.1 8 0.014 53.301c0.103 0.19989 0.2524 0.33804 0.4062 0.47033l-0.014-53.771z" fill="#fff"/>
 <path d="m103.9 8.74-0.75 0.6875 0.9375 0.0625z" fill="url(#ac)" fill-rule="evenodd" filter="url(#e)"/>
 <path transform="matrix(-1,0,0,1,48,0)" d="m23.911 8.7355-0.75 0.6875 0.9375 0.0625z" fill="url(#ag)" fill-rule="evenodd" filter="url(#e)"/>
 <g stroke-dashoffset="4.15" stroke-linecap="round" stroke-linejoin="round">
  <rect transform="matrix(.75565 0 0 .76613 3.1456 2.6444)" x="12" y="12" width="8" height="12" rx="1.0793" ry="1.0793" clip-path="url(#ak)" fill="none" filter="url(#c)" opacity=".78516" stroke="#000"/>
  <rect transform="matrix(.75565 0 0 .76613 3.1456 2.6444)" x="12" y="12" width="8" height="12" rx="1.0793" ry="1.0793" clip-path="url(#aj)" fill="url(#v)" filter="url(#c)" opacity=".78516" stroke="url(#ax)"/>
  <rect transform="matrix(1.0885,0,0,1.1036,-2.18,-3.43)" x="13.897" y="18.031" width="4.3502" height="3.6759" rx=".45227" ry=".45227" fill="url(#w)" filter="url(#ao)" opacity=".78516" stroke="url(#ay)" stroke-width=".33189"/>
 </g>
 <path d="m11.4 8c-2.0564 0.10719-3.375 1.7053-3.375 4.3125v0.59375c0-2.9797 1.4216-4.3125 4.375-4.3125 36.521-0.57384 76.291-0.27228 104.25 0 1.896 0 3.375 1.1283 3.375 3.3125v-0.59375c0-1.5434-1.5485-3.3125-3.375-3.3125h-104.25c-0.3691 0-0.7062-0.0153-1 0z" fill="#343434" fill-opacity=".8284"/>
 <path transform="matrix(-1.3891,0,0,1.3891,175.7,-2.24)" d="m118.02 8.3885 0.11049 1.1049 1.4584 1e-7c-0.0988-0.4722-0.19843-1.1811-1.5689-1.1049z" fill="url(#z)" fill-rule="evenodd" filter="url(#d)"/>
 <path transform="matrix(1.2828,0,0,1.2828,-33.45,-2.36)" d="m117.12 8.6885 0.11049 1.1049h1.4584c-0.0988-0.4722-0.19843-1.1811-1.5689-1.1049z" fill="url(#x)" fill-rule="evenodd" filter="url(#d)" opacity=".86141"/>
</svg>
